<svg width="57" height="58" viewBox="0 0 57 58" fill="none" xmlns="http://www.w3.org/2000/svg">
<rect width="57" height="58" fill="#1E1E1E"/>
<rect width="1440" height="1024" transform="translate(-41 -928)" fill="#0E0E0E"/>
<g filter="url(#filter0_i_104_333)">
<path d="M24.6709 43.536H8.35088V39.552L24.6709 30.384V22.896C24.6709 18.144 20.9269 14.4 16.2229 14.4H12.3829C7.72688 14.4 3.88688 18.192 3.88688 22.896V24.432H8.35088V22.896C8.35088 20.688 10.1749 18.864 12.3829 18.864H16.2229C18.4789 18.864 20.2069 20.64 20.2069 22.896V27.744L3.88688 36.912V48H24.6709V43.536ZM32.34 33.6H36.804L42.42 29.808H44.676C46.884 29.808 48.66 31.584 48.66 33.792V39.504C48.66 41.76 46.932 43.536 44.676 43.536H40.836C38.628 43.536 36.804 41.712 36.804 39.504V38.976H32.34V39.504C32.34 44.208 36.18 48 40.836 48H44.676C49.38 48 53.124 44.208 53.124 39.504V33.792C53.124 29.088 49.332 25.344 44.676 25.344H41.028L36.804 28.176V18.864H50.292V14.4H32.34V33.6Z" fill="white"/>
</g>
<path d="M24.6709 43.536H27.6709L24.6709 40.536V43.536ZM8.35088 43.536H5.35088L8.35088 46.536V43.536ZM8.35088 39.552L6.88155 36.9365L5.35088 39.552H8.35088ZM24.6709 30.384L26.1402 32.9995L27.6709 30.384H24.6709ZM3.88688 24.432H0.886875L3.88688 27.432V24.432ZM8.35088 24.432V27.432L11.3509 24.432H8.35088ZM20.2069 27.744L21.6762 30.3595L23.2069 27.744H20.2069ZM3.88688 36.912L2.41755 34.2965L0.886875 36.912H3.88688ZM3.88688 48H0.886875L3.88688 51V48ZM24.6709 48V51L27.6709 48H24.6709ZM24.6709 40.536H20.5909V46.536H24.6709V40.536ZM12.4309 40.536H8.35088V46.536H12.4309V40.536ZM11.3509 43.536V42.54H5.35088V43.536H11.3509ZM11.3509 40.548V39.552H5.35088V40.548H11.3509ZM9.8202 42.1675L13.9002 39.8755L10.9616 34.6445L6.88155 36.9365L9.8202 42.1675ZM22.0602 35.2915L26.1402 32.9995L23.2016 27.7685L19.1216 30.0605L22.0602 35.2915ZM27.6709 30.384V28.512H21.6709V30.384H27.6709ZM27.6709 24.768V22.896H21.6709V24.768H27.6709ZM27.6709 22.896C27.6709 21.3521 27.3741 19.8727 26.826 18.5181L21.264 20.7684C21.5236 21.4101 21.6709 22.1255 21.6709 22.896H27.6709ZM20.6149 12.2625C19.2567 11.7033 17.7718 11.4 16.2229 11.4V17.4C16.9838 17.4 17.693 17.5481 18.3307 17.8106L20.6149 12.2625ZM16.2229 11.4H15.2629V17.4H16.2229V11.4ZM13.3429 11.4H12.3829V17.4H13.3429V11.4ZM12.3829 11.4C10.8303 11.4 9.34045 11.7123 7.97965 12.279L10.2863 17.8179C10.9325 17.5488 11.6395 17.4 12.3829 17.4V11.4ZM1.76393 18.4931C1.19853 19.8516 0.886875 21.3404 0.886875 22.896H6.88688C6.88688 22.1471 7.03603 21.4408 7.30337 20.7984L1.76393 18.4931ZM0.886875 22.896V23.28H6.88688V22.896H0.886875ZM0.886875 24.048V24.432H6.88688V24.048H0.886875ZM3.88688 27.432H5.00288V21.432H3.88688V27.432ZM7.23488 27.432H8.35088V21.432H7.23488V27.432ZM11.3509 24.432V24.048H5.35088V24.432H11.3509ZM11.3509 23.28V22.896H5.35088V23.28H11.3509ZM11.3509 22.896C11.3509 22.7623 11.3776 22.6359 11.4273 22.5175L5.89539 20.1942C5.54552 21.0272 5.35088 21.942 5.35088 22.896H11.3509ZM12.0044 21.9404C12.1228 21.8907 12.2492 21.864 12.3829 21.864V15.864C11.4288 15.864 10.5141 16.0586 9.68103 16.4085L12.0044 21.9404ZM12.3829 21.864H13.3429V15.864H12.3829V21.864ZM15.2629 21.864H16.2229V15.864H15.2629V21.864ZM16.2229 21.864C16.3858 21.864 16.5183 21.8946 16.6252 21.9384L18.901 16.3868C18.0673 16.045 17.1614 15.864 16.2229 15.864V21.864ZM17.1277 22.457C17.175 22.5764 17.2069 22.7222 17.2069 22.896H23.2069C23.2069 21.9721 23.0342 21.077 22.707 20.2498L17.1277 22.457ZM17.2069 22.896V24.108H23.2069V22.896H17.2069ZM17.2069 26.532V27.744H23.2069V26.532H17.2069ZM18.7376 25.1285L14.6576 27.4205L17.5962 32.6515L21.6762 30.3595L18.7376 25.1285ZM6.49755 32.0045L2.41755 34.2965L5.3562 39.5275L9.4362 37.2355L6.49755 32.0045ZM0.886875 36.912V39.684H6.88688V36.912H0.886875ZM0.886875 45.228V48H6.88688V45.228H0.886875ZM3.88688 51H9.08288V45H3.88688V51ZM19.4749 51H24.6709V45H19.4749V51ZM27.6709 48V46.884H21.6709V48H27.6709ZM27.6709 44.652V43.536H21.6709V44.652H27.6709ZM24.6709 43.536H30.6709L24.6709 37.536V43.536ZM8.35088 43.536H2.35088L8.35088 49.536V43.536ZM8.35088 39.552L5.41223 34.3209L2.35088 39.552H8.35088ZM24.6709 30.384L27.6095 35.6151L30.6709 30.384H24.6709ZM3.88688 24.432H-2.11312L3.88688 30.432V24.432ZM8.35088 24.432V30.432L14.3509 24.432H8.35088ZM20.2069 27.744L23.1455 32.9751L26.2069 27.744H20.2069ZM3.88688 36.912L0.94823 31.6809L-2.11312 36.912H3.88688ZM3.88688 48H-2.11312L3.88688 54V48ZM24.6709 48V54L30.6709 48H24.6709ZM24.6709 37.536H20.5909V49.536H24.6709V37.536ZM12.4309 37.536H8.35088V49.536H12.4309V37.536ZM14.3509 43.536V42.54H2.35088V43.536H14.3509ZM14.3509 40.548V39.552H2.35088V40.548H14.3509ZM11.2895 44.7831L15.3695 42.4911L9.49223 32.0289L5.41223 34.3209L11.2895 44.7831ZM23.5295 37.9071L27.6095 35.6151L21.7322 25.1529L17.6522 27.4449L23.5295 37.9071ZM30.6709 30.384V28.512H18.6709V30.384H30.6709ZM30.6709 24.768V22.896H18.6709V24.768H30.6709ZM30.6709 22.896C30.6709 20.9654 30.2993 19.104 29.607 17.3929L18.483 21.8936C18.5984 22.1787 18.6709 22.5123 18.6709 22.896H30.6709ZM21.757 9.48837C20.0385 8.78083 18.1657 8.4 16.2229 8.4V20.4C16.5898 20.4 16.9112 20.4705 17.1886 20.5847L21.757 9.48837ZM16.2229 8.4H15.2629V20.4H16.2229V8.4ZM13.3429 8.4H12.3829V20.4H13.3429V8.4ZM12.3829 8.4C10.4256 8.4 8.54444 8.79402 6.8263 9.50955L11.4397 20.5873C11.7285 20.467 12.0441 20.4 12.3829 20.4V8.4ZM-1.00579 17.3404C-1.72022 19.0571 -2.11312 20.937 -2.11312 22.896H9.88688C9.88688 22.5504 9.95478 22.2353 10.0731 21.9511L-1.00579 17.3404ZM-2.11312 22.896V23.28H9.88688V22.896H-2.11312ZM-2.11312 24.048V24.432H9.88688V24.048H-2.11312ZM3.88688 30.432H5.00288V18.432H3.88688V30.432ZM7.23488 30.432H8.35088V18.432H7.23488V30.432ZM14.3509 24.432V24.048H2.35088V24.432H14.3509ZM14.3509 23.28V22.896H2.35088V23.28H14.3509ZM14.3509 22.896C14.3509 23.1725 14.2936 23.4403 14.1933 23.6792L3.12943 19.0325C2.62951 20.2228 2.35088 21.5318 2.35088 22.896H14.3509ZM13.166 24.7064C12.9272 24.8067 12.6594 24.864 12.3829 24.864V12.864C11.0186 12.864 9.70969 13.1426 8.51936 13.6426L13.166 24.7064ZM12.3829 24.864H13.3429V12.864H12.3829V24.864ZM15.2629 24.864H16.2229V12.864H15.2629V24.864ZM16.2229 24.864C15.998 24.864 15.7438 24.8194 15.4873 24.7143L20.0389 13.611C18.8419 13.1203 17.5492 12.864 16.2229 12.864V24.864ZM14.3381 23.5606C14.2453 23.3261 14.2069 23.0973 14.2069 22.896H26.2069C26.2069 21.597 25.9639 20.3273 25.4966 19.1462L14.3381 23.5606ZM14.2069 22.896V24.108H26.2069V22.896H14.2069ZM14.2069 26.532V27.744H26.2069V26.532H14.2069ZM17.2682 22.5129L13.1882 24.8049L19.0655 35.2671L23.1455 32.9751L17.2682 22.5129ZM5.02823 29.3889L0.94823 31.6809L6.82552 42.1431L10.9055 39.8511L5.02823 29.3889ZM-2.11312 36.912V39.684H9.88688V36.912H-2.11312ZM-2.11312 45.228V48H9.88688V45.228H-2.11312ZM3.88688 54H9.08288V42H3.88688V54ZM19.4749 54H24.6709V42H19.4749V54ZM30.6709 48V46.884H18.6709V48H30.6709ZM30.6709 44.652V43.536H18.6709V44.652H30.6709ZM32.34 33.6H29.34L32.34 36.6V33.6ZM36.804 33.6V36.6L38.4828 36.0863L36.804 33.6ZM42.42 29.808V26.808L40.7412 27.3217L42.42 29.808ZM36.804 38.976H39.804L36.804 35.976V38.976ZM32.34 38.976V35.976L29.34 38.976H32.34ZM41.028 25.344V22.344L39.3574 22.8522L41.028 25.344ZM36.804 28.176H33.804L38.4746 30.6678L36.804 28.176ZM36.804 18.864V15.864L33.804 18.864H36.804ZM50.292 18.864V21.864L53.292 18.864H50.292ZM50.292 14.4H53.292L50.292 11.4V14.4ZM32.34 14.4V11.4L29.34 14.4H32.34ZM35.34 33.6V28.8H29.34V33.6H35.34ZM35.34 19.2V14.4H29.34V19.2H35.34ZM32.34 17.4H36.828V11.4H32.34V17.4ZM45.804 17.4H50.292V11.4H45.804V17.4ZM47.292 14.4V15.516H53.292V14.4H47.292ZM47.292 17.748V18.864H53.292V17.748H47.292ZM50.292 15.864H46.92V21.864H50.292V15.864ZM40.176 15.864H36.804V21.864H40.176V15.864ZM33.804 18.864V21.192H39.804V18.864H33.804ZM33.804 25.848V28.176H39.804V25.848H33.804ZM38.4746 30.6678L39.5306 29.9598L36.1894 24.9762L35.1334 25.6842L38.4746 30.6678ZM41.6426 28.5438L42.6986 27.8358L39.3574 22.8522L38.3014 23.5602L41.6426 28.5438ZM41.028 28.344H41.94V22.344H41.028V28.344ZM43.764 28.344H44.676V22.344H43.764V28.344ZM44.676 28.344C45.4229 28.344 46.1275 28.4912 46.7671 28.7553L49.057 23.2095C47.702 22.65 46.2201 22.344 44.676 22.344V28.344ZM49.714 31.6998C49.9764 32.3358 50.124 33.0397 50.124 33.792H56.124C56.124 32.2449 55.8186 30.7641 55.2604 29.4113L49.714 31.6998ZM50.124 33.792V35.22H56.124V33.792H50.124ZM50.124 38.076V39.504H56.124V38.076H50.124ZM50.124 39.504C50.124 40.263 49.9766 40.9754 49.7139 41.6194L55.2695 43.8856C55.8226 42.5296 56.124 41.0481 56.124 39.504H50.124ZM46.7726 44.5874C46.1361 44.8515 45.4307 45 44.676 45V51C46.2281 51 47.7141 50.6926 49.0714 50.1296L46.7726 44.5874ZM44.676 45H43.716V51H44.676V45ZM41.796 45H40.836V51H41.796V45ZM40.836 45C40.0926 45 39.3856 44.8512 38.7395 44.5821L36.4328 50.121C37.7936 50.6877 39.2834 51 40.836 51V45ZM35.7565 41.6016C35.4892 40.9592 35.34 40.2529 35.34 39.504H29.34C29.34 41.0596 29.6517 42.5484 30.2171 43.9069L35.7565 41.6016ZM35.34 39.504V39.372H29.34V39.504H35.34ZM35.34 39.108V38.976H29.34V39.108H35.34ZM32.34 41.976H33.456V35.976H32.34V41.976ZM35.688 41.976H36.804V35.976H35.688V41.976ZM33.804 38.976V39.108H39.804V38.976H33.804ZM33.804 39.372V39.504H39.804V39.372H33.804ZM33.804 39.504C33.804 40.458 33.9986 41.3728 34.3485 42.2058L39.8804 39.8825C39.8307 39.7641 39.804 39.6377 39.804 39.504H33.804ZM38.1342 45.9915C38.9672 46.3414 39.882 46.536 40.836 46.536V40.536C40.7023 40.536 40.5759 40.5093 40.4575 40.4596L38.1342 45.9915ZM40.836 46.536H41.796V40.536H40.836V46.536ZM43.716 46.536H44.676V40.536H43.716V46.536ZM44.676 46.536C45.6145 46.536 46.5205 46.355 47.3542 46.0132L45.0783 40.4616C44.9714 40.5054 44.8389 40.536 44.676 40.536V46.536ZM51.1601 42.1502C51.4874 41.323 51.66 40.4279 51.66 39.504H45.66C45.66 39.6778 45.6281 39.8236 45.5808 39.943L51.1601 42.1502ZM51.66 39.504V38.076H45.66V39.504H51.66ZM51.66 35.22V33.792H45.66V35.22H51.66ZM51.66 33.792C51.66 32.8531 51.4743 31.9494 51.1329 31.1217L45.5862 33.4096C45.6322 33.5212 45.66 33.6482 45.66 33.792H51.66ZM47.3463 27.3351C46.5186 26.9937 45.6149 26.808 44.676 26.808V32.808C44.8198 32.808 44.9468 32.8358 45.0584 32.8818L47.3463 27.3351ZM44.676 26.808H44.112V32.808H44.676V26.808ZM42.984 26.808H42.42V32.808H42.984V26.808ZM40.7412 27.3217L39.3372 28.2697L42.6948 33.2423L44.0988 32.2943L40.7412 27.3217ZM36.5292 30.1657L35.1252 31.1137L38.4828 36.0863L39.8868 35.1383L36.5292 30.1657ZM36.804 30.6H35.688V36.6H36.804V30.6ZM33.456 30.6H32.34V36.6H33.456V30.6ZM32.34 33.6H26.34L32.34 39.6V33.6ZM36.804 33.6V39.6L40.1616 38.5726L36.804 33.6ZM42.42 29.808V23.808L39.0624 24.8354L42.42 29.808ZM36.804 38.976H42.804L36.804 32.976V38.976ZM32.34 38.976V32.976L26.34 38.976H32.34ZM41.028 25.344V19.344L37.6867 20.3604L41.028 25.344ZM36.804 28.176H30.804L40.1453 33.1596L36.804 28.176ZM36.804 18.864V12.864L30.804 18.864H36.804ZM50.292 18.864V24.864L56.292 18.864H50.292ZM50.292 14.4H56.292L50.292 8.4V14.4ZM32.34 14.4V8.4L26.34 14.4H32.34ZM38.34 33.6V28.8H26.34V33.6H38.34ZM38.34 19.2V14.4H26.34V19.2H38.34ZM32.34 20.4H36.828V8.4H32.34V20.4ZM45.804 20.4H50.292V8.4H45.804V20.4ZM44.292 14.4V15.516H56.292V14.4H44.292ZM44.292 17.748V18.864H56.292V17.748H44.292ZM50.292 12.864H46.92V24.864H50.292V12.864ZM40.176 12.864H36.804V24.864H40.176V12.864ZM30.804 18.864V21.192H42.804V18.864H30.804ZM30.804 25.848V28.176H42.804V25.848H30.804ZM40.1453 33.1596L41.2013 32.4516L34.5187 22.4844L33.4627 23.1924L40.1453 33.1596ZM43.3133 31.0356L44.3693 30.3276L37.6867 20.3604L36.6307 21.0684L43.3133 31.0356ZM41.028 31.344H41.94V19.344H41.028V31.344ZM43.764 31.344H44.676V19.344H43.764V31.344ZM44.676 31.344C45.0242 31.344 45.3402 31.4119 45.6222 31.5283L50.2019 20.4366C48.4892 19.7294 46.6188 19.344 44.676 19.344V31.344ZM46.9408 32.8441C47.0553 33.1216 47.124 33.4371 47.124 33.792H59.124C59.124 31.8474 58.7397 29.9782 58.0336 28.267L46.9408 32.8441ZM47.124 33.792V35.22H59.124V33.792H47.124ZM47.124 38.076V39.504H59.124V38.076H47.124ZM47.124 39.504C47.124 39.8704 47.0536 40.1983 46.9361 40.4863L58.0473 45.0187C58.7456 43.3067 59.124 41.4407 59.124 39.504H47.124ZM45.6233 41.8163C45.3471 41.9309 45.0319 42 44.676 42V54C46.6269 54 48.5031 53.6131 50.2208 52.9007L45.6233 41.8163ZM44.676 42H43.716V54H44.676V42ZM41.796 42H40.836V54H41.796V42ZM40.836 42C40.4972 42 40.1816 41.933 39.8928 41.8127L35.2794 52.8904C36.9976 53.606 38.8788 54 40.836 54V42ZM38.5262 40.4489C38.4079 40.1647 38.34 39.8496 38.34 39.504H26.34C26.34 41.463 26.7329 43.3429 27.4473 45.0596L38.5262 40.4489ZM38.34 39.504V39.372H26.34V39.504H38.34ZM38.34 39.108V38.976H26.34V39.108H38.34ZM32.34 44.976H33.456V32.976H32.34V44.976ZM35.688 44.976H36.804V32.976H35.688V44.976ZM30.804 38.976V39.108H42.804V38.976H30.804ZM30.804 39.372V39.504H42.804V39.372H30.804ZM30.804 39.504C30.804 40.8682 31.0826 42.1772 31.5826 43.3675L42.6464 38.7208C42.7467 38.9597 42.804 39.2275 42.804 39.504H30.804ZM36.9725 48.7574C38.1628 49.2574 39.4718 49.536 40.836 49.536V37.536C41.1125 37.536 41.3803 37.5933 41.6192 37.6936L36.9725 48.7574ZM40.836 49.536H41.796V37.536H40.836V49.536ZM43.716 49.536H44.676V37.536H43.716V49.536ZM44.676 49.536C46.0023 49.536 47.295 49.2797 48.4921 48.789L43.9404 37.6857C44.1969 37.5806 44.4511 37.536 44.676 37.536V49.536ZM53.9497 43.2538C54.417 42.0727 54.66 40.803 54.66 39.504H42.66C42.66 39.3027 42.6985 39.0739 42.7912 38.8394L53.9497 43.2538ZM54.66 39.504V38.076H42.66V39.504H54.66ZM54.66 35.22V33.792H42.66V35.22H54.66ZM54.66 33.792C54.66 32.4555 54.3953 31.1635 53.9062 29.9777L42.8129 34.5536C42.7112 34.3071 42.66 34.0458 42.66 33.792H54.66ZM48.4903 24.5618C47.3045 24.0727 46.0125 23.808 44.676 23.808V35.808C44.4222 35.808 44.1609 35.7568 43.9144 35.6551L48.4903 24.5618ZM44.676 23.808H44.112V35.808H44.676V23.808ZM42.984 23.808H42.42V35.808H42.984V23.808ZM39.0624 24.8354L37.6584 25.7834L44.3736 35.7286L45.7776 34.7806L39.0624 24.8354ZM34.8504 27.6794L33.4464 28.6274L40.1616 38.5726L41.5656 37.6246L34.8504 27.6794ZM36.804 27.6H35.688V39.6H36.804V27.6ZM33.456 27.6H32.34V39.6H33.456V27.6Z" fill="#612214"/>
<defs>
<filter id="filter0_i_104_333" x="3.88672" y="14.4" width="49.2373" height="33.6" filterUnits="userSpaceOnUse" color-interpolation-filters="sRGB">
<feFlood flood-opacity="0" result="BackgroundImageFix"/>
<feBlend mode="normal" in="SourceGraphic" in2="BackgroundImageFix" result="shape"/>
<feColorMatrix in="SourceAlpha" type="matrix" values="0 0 0 0 0 0 0 0 0 0 0 0 0 0 0 0 0 0 127 0" result="hardAlpha"/>
<feOffset dx="92" dy="4"/>
<feGaussianBlur stdDeviation="2"/>
<feComposite in2="hardAlpha" operator="arithmetic" k2="-1" k3="1"/>
<feColorMatrix type="matrix" values="0 0 0 0 0.0634375 0 0 0 0 0.188621 0 0 0 0 0.845833 0 0 0 0.25 0"/>
<feBlend mode="normal" in2="shape" result="effect1_innerShadow_104_333"/>
</filter>
</defs>
</svg>
